<svg width="20" height="20" viewBox="0 0 20 20" fill="none" xmlns="http://www.w3.org/2000/svg">
<path fill-rule="evenodd" clip-rule="evenodd" d="M19.0435 4.10195C19.5029 3.64261 19.8316 3.06849 19.9514 2.46923C20.0695 1.87913 19.9986 1.12506 19.4367 0.563157C18.8748 0.00125598 18.1208 -0.069574 17.5307 0.0484461C16.9314 0.168299 16.3573 0.49702 15.8979 0.956357L9.99995 6.85434L4.10201 0.956402C3.64267 0.497065 3.06855 0.168344 2.46929 0.0484911C1.87919 -0.0695292 1.12512 0.00130032 0.563215 0.563202C0.00131368 1.1251 -0.0695161 1.87917 0.0485043 2.46927C0.168357 3.06853 0.497078 3.64266 0.956415 4.10199L6.85435 9.99993L0.956357 15.8979C0.49702 16.3573 0.168299 16.9314 0.0484462 17.5306C-0.0695739 18.1207 0.00125548 18.8748 0.563157 19.4367C1.12506 19.9986 1.87913 20.0694 2.46923 19.9514C3.06849 19.8316 3.64261 19.5029 4.10195 19.0435L9.99995 13.1455L15.898 19.0436C16.3573 19.5029 16.9314 19.8316 17.5307 19.9515C18.1208 20.0695 18.8749 19.9987 19.4368 19.4368C19.9987 18.8749 20.0695 18.1208 19.9515 17.5307C19.8316 16.9314 19.5029 16.3573 19.0436 15.898L13.1455 9.99993L19.0435 4.10195Z" fill="#777777"/>
</svg>
