<svg width="22" height="20" viewBox="0 0 22 20" fill="none" xmlns="http://www.w3.org/2000/svg">
<path d="M21.2889 7.04257L14.6938 6.1301L11.7455 0.440169C11.665 0.284382 11.5325 0.158269 11.3689 0.0816118C10.9585 -0.111267 10.4598 0.0494654 10.2546 0.440169L7.30634 6.1301L0.711168 7.04257C0.52934 7.0673 0.363097 7.1489 0.235817 7.27254C0.0819425 7.4231 -0.00284927 7.62566 7.31104e-05 7.8357C0.00299549 8.04575 0.0933929 8.24609 0.251402 8.39272L5.0231 12.8215L3.89576 19.0753C3.86932 19.2207 3.88623 19.3703 3.94457 19.5071C4.00291 19.6439 4.10035 19.7624 4.22583 19.8492C4.35131 19.9359 4.49981 19.9875 4.6545 19.998C4.80919 20.0085 4.96388 19.9775 5.10102 19.9086L11.0001 16.9561L16.8991 19.9086C17.0601 19.9902 17.2472 20.0174 17.4264 19.9877C17.8784 19.9135 18.1823 19.5055 18.1043 19.0753L16.977 12.8215L21.7487 8.39272C21.8786 8.27156 21.9643 8.1133 21.9903 7.9402C22.0604 7.50746 21.7435 7.10686 21.2889 7.04257Z" fill="#777777" fill-opacity="0.5"/>
</svg>
