<svg width="25" height="25" viewBox="0 0 25 25" fill="none" xmlns="http://www.w3.org/2000/svg">
<path fill-rule="evenodd" clip-rule="evenodd" d="M16.0042 24.8979C15.8401 24.8256 14.38 23.3957 12.0951 21.0697L8.4479 17.3569V8.6784V9.01762e-07L13.1425 0.0012975C18.2989 0.00274679 18.4165 0.0115199 19.3384 0.460112C19.9298 0.747833 20.7318 1.49513 21.0674 2.07111C21.1981 2.29552 21.9972 4.1979 22.8432 6.29875C24.1185 9.46574 24.395 10.2192 24.4616 10.7079C24.7058 12.4974 23.765 14.3372 22.1879 15.1541C21.4076 15.5582 20.8595 15.637 18.8274 15.637H16.9612L17.5114 16.2366C18.3649 17.1667 18.8253 18.0583 19.0383 19.1937C19.3863 21.048 18.8694 22.901 17.607 24.3252C17.0448 24.9595 16.5473 25.1373 16.0042 24.8979ZM2.16304 15.5658C1.79017 15.4501 1.50004 15.2535 1.23302 14.9355C0.722566 14.3275 0.735434 14.524 0.758551 7.65803L0.779424 1.48743L0.95434 1.12533C1.05055 0.92617 1.26789 0.642188 1.43734 0.494284C1.95147 0.0456161 2.23367 9.01762e-07 4.49636 9.01762e-07H6.50273V7.81852V15.637L4.42663 15.6305C3.28481 15.6269 2.26614 15.5977 2.16304 15.5658Z" fill="#777777" fill-opacity="0.5"/>
</svg>
