<svg width="24" height="25" viewBox="0 0 24 25" fill="none" xmlns="http://www.w3.org/2000/svg">
<path fill-rule="evenodd" clip-rule="evenodd" d="M15.2542 0.102109C15.0901 0.174421 13.63 1.60426 11.3451 3.93028L7.6979 7.64312V16.3216V25L12.3925 24.9987C17.5489 24.9973 17.6665 24.9885 18.5884 24.5399C19.1798 24.2522 19.9818 23.5049 20.3174 22.9289C20.4481 22.7045 21.2472 20.8021 22.0932 18.7013C23.3685 15.5343 23.645 14.7808 23.7116 14.2921C23.9558 12.5026 23.015 10.6628 21.4379 9.84588C20.6576 9.44176 20.1095 9.36297 18.0774 9.36297H16.2112L16.7614 8.76342C17.6149 7.83329 18.0753 6.94167 18.2883 5.80627C18.6363 3.95202 18.1194 2.099 16.857 0.674806C16.2948 0.0404762 15.7973 -0.137252 15.2542 0.102109ZM1.41304 9.43421C1.04017 9.54985 0.750037 9.7465 0.483025 10.0645C-0.0274343 10.6725 -0.0145664 10.476 0.00855122 17.342L0.0294244 23.5126L0.20434 23.8747C0.300552 24.0738 0.517888 24.3578 0.687343 24.5057C1.20147 24.9544 1.48367 25 3.74636 25H5.75273V17.1815V9.36297L3.67663 9.36953C2.53481 9.37311 1.51614 9.40225 1.41304 9.43421Z" fill="#FCE300"/>
</svg>
