<svg width="17" height="16" viewBox="0 0 17 16" fill="none" xmlns="http://www.w3.org/2000/svg">
<path fill-rule="evenodd" clip-rule="evenodd" d="M4.04207 0.542563C3.53307 0.653648 2.99393 1.03309 2.71704 1.47505C2.54331 1.75239 2.51151 1.84781 1.84668 4.08618L1.27191 6.02132L1.0523 6.1489C0.612665 6.40428 0.229583 6.88752 0.0737887 7.38328C0.000332681 7.61695 0 7.6297 0 10.1V12.582L0.0750861 12.734C0.116372 12.8176 0.193853 12.9393 0.247249 13.0046C0.367845 13.1522 0.681264 13.3232 0.887027 13.3538L1.04212 13.3769L1.05427 14.0527C1.06538 14.6698 1.07286 14.7418 1.1406 14.8805C1.2567 15.1184 1.39144 15.2604 1.61932 15.385L1.82975 15.5H2.64481H3.45988L3.6695 15.3854C3.90268 15.2579 4.00318 15.1531 4.13483 14.8999C4.22142 14.7333 4.22422 14.7096 4.23576 14.0494L4.2476 13.3702H8.50296H12.7583V13.9868C12.7583 14.4628 12.7706 14.6417 12.812 14.7712C12.894 15.0271 13.0742 15.2414 13.3239 15.38L13.5401 15.5H14.3552H15.1703L15.3799 15.3854C15.6131 15.2579 15.7136 15.1531 15.8452 14.8999C15.9317 14.7334 15.9346 14.7094 15.9461 14.0527L15.9579 13.3769L16.113 13.3538C16.3073 13.3249 16.6277 13.1559 16.7374 13.0244C16.7832 12.9695 16.861 12.8475 16.9103 12.7533L17 12.582V10.1C17 7.6297 16.9997 7.61695 16.9262 7.38328C16.7704 6.88752 16.3873 6.40428 15.9477 6.1489L15.7281 6.02132L15.1533 4.08618C14.8372 3.02182 14.5413 2.04536 14.4957 1.91623C14.2785 1.3007 13.7994 0.82534 13.1703 0.601057L12.908 0.507547L8.58317 0.501476C4.97371 0.496378 4.22255 0.503187 4.04207 0.542563ZM12.9792 4.24728C13.2408 5.12351 13.4552 5.84422 13.4558 5.84882C13.4564 5.85341 11.2247 5.8572 8.49644 5.8572C4.41168 5.8572 3.53889 5.84942 3.5527 5.8131C3.56195 5.78885 3.7752 5.07572 4.0266 4.22832C4.27801 3.38097 4.49006 2.67629 4.49781 2.66237C4.50557 2.64845 6.31009 2.6409 8.50785 2.6456L12.5038 2.65412L12.9792 4.24728ZM4.67893 8.63892C4.90774 8.74736 5.05159 8.88585 5.17492 9.11647C5.27862 9.31036 5.2884 9.35313 5.2884 9.6137C5.2884 9.87407 5.27858 9.91714 5.17535 10.1101C5.04947 10.3455 4.94507 10.4471 4.69436 10.5785C4.54998 10.6541 4.48198 10.6676 4.24168 10.6682C3.98252 10.6689 3.94134 10.6594 3.74848 10.5546C3.52026 10.4305 3.38513 10.2881 3.27052 10.0508C3.16233 9.82678 3.16589 9.39354 3.27781 9.16091C3.4159 8.87391 3.68537 8.6508 3.99217 8.56953C4.15539 8.52626 4.51871 8.56299 4.67893 8.63892ZM13.1956 8.63892C13.4244 8.74736 13.5682 8.88585 13.6916 9.11647C13.7953 9.31036 13.805 9.35313 13.805 9.6137C13.805 9.87407 13.7952 9.91714 13.692 10.1101C13.5661 10.3455 13.4617 10.4471 13.211 10.5785C13.0666 10.6541 12.9986 10.6676 12.7583 10.6682C12.4992 10.6689 12.458 10.6594 12.2651 10.5546C12.0369 10.4305 11.9018 10.2881 11.7872 10.0508C11.679 9.82678 11.6825 9.39354 11.7944 9.16091C11.9325 8.87391 12.202 8.6508 12.5088 8.56953C12.672 8.52626 13.0353 8.56299 13.1956 8.63892Z" fill="#777777"/>
</svg>
