<svg width="16" height="16" viewBox="0 0 16 16" fill="none" xmlns="http://www.w3.org/2000/svg">
<path fill-rule="evenodd" clip-rule="evenodd" d="M7.23812 0.538115C7.12421 0.578323 6.6294 1.06088 3.62281 4.06403C1.08574 6.59818 0.12241 7.5784 0.0767758 7.67233C-0.0101807 7.85123 -0.0235248 8.04579 0.038034 8.23668C0.0864246 8.38675 0.246114 8.55143 3.56812 11.8772C6.10223 14.4142 7.08254 15.3776 7.17648 15.4232C7.35537 15.5102 7.54993 15.5235 7.74083 15.462C7.8909 15.4136 8.05557 15.2539 11.3813 11.9319C13.9184 9.39777 14.8817 8.41746 14.9274 8.32352C15.0143 8.14463 15.0277 7.95007 14.9661 7.75917C14.9177 7.6091 14.758 7.44443 11.436 4.11867C8.86197 1.54165 7.92242 0.618678 7.82509 0.571372C7.65909 0.490721 7.41212 0.476703 7.23812 0.538115ZM11.6079 7.24984C11.6079 7.28351 9.05347 9.84557 9.01989 9.84557C9.00772 9.84557 8.99778 9.42985 8.99778 8.92175V7.99793H7.50207H6.00636V9.12704V10.2562H5.25757H4.50877L4.51704 8.62114L4.52531 6.98612L4.60245 6.86881C4.70624 6.71097 4.79319 6.63469 4.95056 6.56334C5.07914 6.50506 5.1331 6.50348 7.04016 6.50286L8.99778 6.50222V5.55652V4.61082L10.3029 5.91566C11.0207 6.63331 11.6079 7.23371 11.6079 7.24984Z" fill="#777777"/>
</svg>
