<svg width="59" height="50" viewBox="0 0 59 50" fill="none" xmlns="http://www.w3.org/2000/svg">
<path fill-rule="evenodd" clip-rule="evenodd" d="M14.3245 0.0728555C11.4955 0.583918 9.25291 2.44149 8.25725 5.09828L8.10613 5.50155H4.84835C1.71286 5.50155 1.57194 5.51387 1.09587 5.83166C0.38439 6.3065 -0.109729 7.37437 0.0210073 8.15409C0.151161 8.92985 0.946789 9.84126 1.67093 10.0439C1.96342 10.1256 3.51813 10.1929 5.12598 10.1934L8.04935 10.1942L8.59486 11.2766C9.48599 13.0452 11.0304 14.4231 12.976 15.1855C13.7105 15.4734 14.1161 15.5278 15.5237 15.5278C16.9314 15.5278 17.337 15.4734 18.0715 15.1855C20.1979 14.3521 21.7984 12.8444 22.6746 10.8493L22.9623 10.1942L39.8798 10.1934C50.8675 10.1929 56.9837 10.1404 57.3291 10.0439C58.0532 9.84126 58.8488 8.92985 58.979 8.15409C59.1097 7.37437 58.6156 6.3065 57.9041 5.83166L57.4094 5.50155H40.1754H22.9413L22.7902 5.09828C21.963 2.89081 20.0555 1.04219 17.9194 0.377586C16.8254 0.0372198 15.2575 -0.0956411 14.3245 0.0728555ZM17.0291 5.09813C18.7138 6.03637 19.0945 8.3811 17.8026 9.86325C15.9451 11.9942 12.4826 10.6588 12.4696 7.80654C12.4586 5.38629 14.9204 3.92393 17.0291 5.09813ZM41.4544 17.4651C39.4009 18.0213 37.5117 19.5925 36.5571 21.5381L36.0071 22.6592L18.8865 22.6615L1.76586 22.664L1.19166 22.9916C-0.385906 23.8916 -0.34354 26.2365 1.26519 27.0631C1.81463 27.3455 2.20436 27.3519 18.9171 27.3519H36.0071L36.5571 28.473C39.3681 34.202 47.5844 34.202 50.3954 28.473L50.9454 27.3519H54.0592C56.8693 27.3519 57.2277 27.3237 57.7348 27.0631C59.3671 26.2243 59.3671 23.7867 57.7348 22.9479C57.2277 22.6873 56.8693 22.6592 54.0592 22.6592H50.9454L50.3954 21.5381C49.4255 19.5613 47.5396 18.0098 45.4356 17.4578C44.3751 17.1796 42.4956 17.183 41.4544 17.4651ZM44.924 22.2562C45.2651 22.4379 45.7503 22.8733 46.0025 23.2239C46.4232 23.809 46.4608 23.9548 46.4608 25.0055C46.4608 26.0562 46.4232 26.202 46.0025 26.7871C45.3195 27.7368 44.5077 28.12 43.3148 28.056C42.2005 27.9964 41.5266 27.6229 40.8982 26.7167C40.4446 26.0625 40.2837 24.763 40.5541 23.9375C40.7557 23.3223 41.604 22.4074 42.2258 22.1346C42.9485 21.8177 44.2073 21.8745 44.924 22.2562ZM14.2135 34.4795C11.894 34.9126 9.67307 36.5947 8.59486 38.7344L8.04935 39.8168L5.12598 39.8177C3.51813 39.8181 1.96342 39.8854 1.67093 39.9671C0.946789 40.1698 0.151161 41.0812 0.0210073 41.8569C-0.109729 42.6366 0.38439 43.7045 1.09587 44.1794C1.57194 44.4971 1.71286 44.5095 4.84835 44.5095H8.10613L8.25725 44.9127C8.61088 45.8567 9.06933 46.6135 9.76013 47.3943C13.6351 51.7736 20.7252 50.4233 22.7902 44.9127L22.9413 44.5095H40.1754H57.4094L57.9041 44.1794C58.6156 43.7045 59.1097 42.6366 58.979 41.8569C58.8488 41.0812 58.0532 40.1698 57.3291 39.9671C56.9837 39.8706 50.8733 39.8181 39.8978 39.8177L22.9981 39.8168L22.4557 38.7404C21.1552 36.1596 18.715 34.5699 15.8877 34.4616C15.1671 34.434 14.4136 34.4421 14.2135 34.4795ZM16.7625 39.357C19.068 40.412 19.1921 43.7044 16.9732 44.9456C15.6219 45.7016 13.909 45.2763 12.9891 43.9565C12.4048 43.1181 12.2894 41.7654 12.7289 40.9046C13.5302 39.3346 15.2617 38.6703 16.7625 39.357Z" fill="#FCE300"/>
</svg>
