<svg width="23" height="20" viewBox="0 0 23 20" fill="none" xmlns="http://www.w3.org/2000/svg">
<path d="M16.5903 0C14.399 0 12.5266 1.55447 11.4979 2.62616C10.4692 1.55447 8.60095 0 6.41073 0C2.63559 0 0 2.61887 0 6.3677C0 10.4984 3.27332 13.1682 6.44 15.7507C7.935 16.9712 9.48227 18.2322 10.6689 19.6306C10.8685 19.8647 11.1613 20 11.4686 20H11.5293C11.8377 20 12.1294 19.8637 12.328 19.6306C13.5167 18.2322 15.0629 16.9701 16.559 15.7507C19.7246 13.1693 23 10.4994 23 6.3677C23 2.61887 20.3644 0 16.5903 0Z" fill="#777777" fill-opacity="0.5"/>
</svg>
