<svg width="12" height="16" viewBox="0 0 12 16" fill="none" xmlns="http://www.w3.org/2000/svg">
<path d="M5.87431 15.5C5.76164 15.4257 5.63646 15.3592 5.5363 15.2731C3.98814 13.9039 2.61941 12.3979 1.53444 10.6766C0.904325 9.67518 0.40357 8.61897 0.144847 7.47278C-0.518653 4.55059 1.15888 1.83964 3.9172 0.853842C6.31665 -0.00286412 9.10836 0.732573 10.7108 2.66505C11.658 3.81124 12.0795 5.1139 11.9877 6.55739C11.9209 7.60578 11.5787 8.59158 11.1072 9.53435C10.3477 11.0561 9.30866 12.4096 8.12354 13.6575C7.60609 14.2052 7.04692 14.7176 6.50026 15.2379C6.39176 15.3396 6.25405 15.41 6.12886 15.4961C6.04123 15.5 5.95777 15.5 5.87431 15.5ZM9.32535 6.131C9.32535 4.40976 7.84812 3.02104 6.00785 3.0093C4.17175 3.00148 2.66948 4.40976 2.67783 6.131C2.682 7.85614 4.17175 9.24487 6.00368 9.24487C7.83978 9.24487 9.32535 7.85223 9.32535 6.131Z" fill="#777777"/>
</svg>
