<svg width="15" height="16" viewBox="0 0 15 16" fill="none" xmlns="http://www.w3.org/2000/svg">
<path fill-rule="evenodd" clip-rule="evenodd" d="M2.59655 0.539608C2.2329 0.618492 2.16284 0.673204 1.21242 1.62108C0.383024 2.44827 0.31888 2.51979 0.221576 2.72555C0.0612452 3.06464 0.0212288 3.24887 0.00386878 3.72831C-0.0136678 4.21244 0.0259955 4.53232 0.172673 5.08918C1.0563 8.44395 5.01701 12.8562 8.80786 14.7088C9.93203 15.2582 10.7808 15.4971 11.6178 15.5C12.1302 15.5017 12.3893 15.45 12.7444 15.2753C12.973 15.1629 13.0331 15.1096 13.8585 14.2875C14.7827 13.3669 14.838 13.2973 14.9541 12.9071C15.0153 12.7017 15.0153 12.3165 14.9541 12.1111C14.8488 11.7572 14.8059 11.7057 13.637 10.5335C13.02 9.91477 12.4358 9.35217 12.3387 9.28325C11.7549 8.86888 11.0053 8.92635 10.517 9.42289C10.3693 9.57315 10.3124 9.66113 10.2103 9.89746C10.1414 10.057 10.0492 10.2359 10.0055 10.295C9.72432 10.6749 9.18139 10.9167 8.71959 10.8679C8.0311 10.795 7.00388 10.1748 6.13373 9.30655C5.08033 8.25544 4.45902 7.04606 4.61055 6.34165C4.68111 6.01364 4.91206 5.67041 5.1852 5.48756C5.25187 5.44294 5.39249 5.36986 5.49768 5.32522C5.80328 5.1954 5.87845 5.15284 6.0203 5.0293C6.50992 4.60288 6.61708 3.80476 6.2607 3.23893C6.1558 3.07242 4.12691 1.02565 3.87937 0.836634C3.68202 0.685935 3.42301 0.569882 3.18985 0.527638C2.96897 0.487624 2.82255 0.490587 2.59655 0.539608Z" fill="black"/>
</svg>
