<svg width="30" height="30" viewBox="0 0 30 30" fill="none" xmlns="http://www.w3.org/2000/svg">
<path d="M11.1265 0C11.7675 0 12.4085 0 12.9783 0C13.0495 0 13.1207 0.0713825 13.1919 0.0713825C13.7617 0.142765 14.3315 0.214148 14.9012 0.356913C22.3082 2.14148 26.2253 10.2791 23.0204 17.1318C22.6643 17.9884 22.0945 18.7022 21.6672 19.5588C21.6672 19.5588 21.8096 19.6302 21.8808 19.7016C24.3736 22.2 26.7951 24.627 29.2878 27.1254C29.5727 27.4109 29.9288 27.7678 30 28.1961C30 28.4103 30 28.6244 30 28.8386C29.8576 29.0527 29.7151 29.3382 29.5727 29.5524C29.0029 30.1948 28.0058 30.1234 27.3648 29.481C24.8009 26.9112 22.237 24.3414 19.673 21.8431C19.6018 21.7717 19.5306 21.7003 19.4593 21.6289C19.3881 21.7003 19.3169 21.7003 19.2457 21.7717C15.9695 24.1273 12.4085 24.7697 8.63381 23.699C2.22395 21.8431 -1.4083 15.1331 0.514655 8.70867C1.86785 4.14019 5.07278 1.28489 9.77334 0.214148C10.2007 0.142765 10.6992 0.0713825 11.1265 0ZM21.1686 12.0637C21.1686 7.06687 17.0378 2.99807 12.1236 2.99807C7.06695 3.06945 3.00738 7.13825 3.00738 12.135C3.00738 17.1318 7.13818 21.2006 12.1236 21.2006C17.1091 21.1292 21.1686 17.0604 21.1686 12.0637Z" fill="black"/>
</svg>
