<svg width="20" height="20" viewBox="0 0 20 20" fill="none" xmlns="http://www.w3.org/2000/svg">
<path d="M7.41769 0C7.84501 0 8.27234 0 8.65218 0C8.69966 0 8.74714 0.0475884 8.79462 0.0475884C9.17446 0.0951767 9.55431 0.142765 9.93415 0.237942C14.8721 1.42765 17.4835 6.85272 15.3469 11.4212C15.1095 11.9923 14.7297 12.4682 14.4448 13.0392C14.4448 13.0392 14.5398 13.0868 14.5872 13.1344C16.249 14.8 17.8634 16.418 19.5252 18.0836C19.7151 18.2739 19.9525 18.5119 20 18.7974C20 18.9402 20 19.0829 20 19.2257C19.905 19.3685 19.8101 19.5588 19.7151 19.7016C19.3353 20.1299 18.6705 20.0823 18.2432 19.654C16.5339 17.9408 14.8246 16.2276 13.1153 14.562C13.0679 14.5145 13.0204 14.4669 12.9729 14.4193C12.9254 14.4669 12.8779 14.4669 12.8305 14.5145C10.6464 16.0849 8.27234 16.5132 5.75587 15.7993C1.48263 14.562 -0.938868 10.0887 0.343103 5.80578C1.24523 2.76012 3.38185 0.856591 6.51556 0.142765C6.80044 0.0951767 7.1328 0.0475884 7.41769 0ZM14.1124 8.04243C14.1124 4.71125 11.3586 1.99871 8.08241 1.99871C4.7113 2.0463 2.00492 4.75884 2.00492 8.09002C2.00492 11.4212 4.75878 14.1337 8.08241 14.1337C11.406 14.0862 14.1124 11.3736 14.1124 8.04243Z" fill="#777777"/>
</svg>
