<svg width="19" height="20" viewBox="0 0 19 20" fill="none" xmlns="http://www.w3.org/2000/svg">
<path fill-rule="evenodd" clip-rule="evenodd" d="M12.2033 0.0816874C12.0721 0.139537 10.904 1.2834 9.07609 3.14423L6.15832 6.1145V13.0573V20L9.91401 19.999C14.0391 19.9978 14.1332 19.9908 14.8707 19.6319C15.3438 19.4017 15.9854 18.8039 16.2539 18.3431C16.3585 18.1636 16.9977 16.6417 17.6745 14.961C18.6948 12.4274 18.916 11.8246 18.9693 11.4337C19.1647 10.0021 18.412 8.53026 17.1503 7.87671C16.5261 7.55341 16.0876 7.49038 14.4619 7.49038H12.969L13.4091 7.01074C14.0919 6.26663 14.4602 5.55334 14.6307 4.64501C14.909 3.16162 14.4955 1.6792 13.4856 0.539845C13.0358 0.0323809 12.6379 -0.109801 12.2033 0.0816874ZM1.13043 7.54737C0.832134 7.63988 0.60003 7.7972 0.38642 8.0516C-0.0219475 8.53801 -0.0116532 8.38082 0.00684098 13.8736L0.0235395 18.8101L0.163472 19.0997C0.240441 19.2591 0.41431 19.4862 0.549874 19.6046C0.961174 19.9635 1.18693 20 2.99709 20H4.60218V13.7452V7.49038L2.9413 7.49562C2.02785 7.49849 1.21291 7.5218 1.13043 7.54737Z" fill="black"/>
</svg>
