<svg width="23" height="15" viewBox="0 0 23 15" fill="none" xmlns="http://www.w3.org/2000/svg">
<path d="M22.5449 3.27419L12.3496 14.1452C12.2282 14.2742 12.0967 14.3654 11.9551 14.4187C11.8135 14.4729 11.6618 14.5 11.5 14.5C11.3382 14.5 11.1865 14.4729 11.0449 14.4187C10.9033 14.3654 10.7718 14.2742 10.6504 14.1452L0.424802 3.27419C0.1416 2.97312 -5.20307e-07 2.59677 -5.40047e-07 2.14516C-5.59788e-07 1.69355 0.151714 1.30645 0.455145 0.983872C0.758575 0.661291 1.11258 0.500001 1.51715 0.500001C1.92172 0.500001 2.27572 0.661291 2.57916 0.983872L11.5 10.4677L20.4208 0.983872C20.704 0.682796 21.0528 0.532258 21.4671 0.532258C21.8822 0.532258 22.2414 0.693548 22.5449 1.01613C22.8483 1.33871 23 1.71505 23 2.14516C23 2.57527 22.8483 2.95161 22.5449 3.27419Z" fill="#FCE300"/>
</svg>
