<svg width="14" height="16" viewBox="0 0 14 16" fill="none" xmlns="http://www.w3.org/2000/svg">
<path fill-rule="evenodd" clip-rule="evenodd" d="M1.56565 0.531032C1.0076 0.62657 0.445662 1.0699 0.195328 1.61211C-0.0139575 2.0654 0.000201103 1.60102 0.000201103 8.00592C0.000201103 13.4546 0.00344331 13.8265 0.0525523 14.0134C0.234086 14.7041 0.755664 15.2525 1.41309 15.4438C1.59664 15.4972 1.82696 15.5 5.96407 15.5H10.3217L10.5594 15.4134C10.8706 15.3001 11.0979 15.155 11.3158 14.9305C11.5336 14.706 11.6745 14.4718 11.7844 14.1511L11.8684 13.9062L11.8774 12.3966C11.8824 11.5664 11.8754 10.8871 11.862 10.8871C11.8486 10.8871 11.704 11.0259 11.5407 11.1957C11.1098 11.6435 10.671 11.9286 10.0841 12.1419C9.69189 12.2845 8.48347 12.5227 8.1652 12.5201C7.86915 12.5177 7.61414 12.444 7.39097 12.2964C6.97546 12.0217 6.66626 11.3967 6.71852 10.9371C6.74734 10.6834 7.12653 9.01344 7.20295 8.80357C7.30075 8.53501 7.44968 8.26685 7.65894 7.98254C7.75493 7.85212 8.60751 6.95102 9.55352 5.9801C11.3132 4.17407 11.411 4.08393 11.8313 3.88016L11.9428 3.8261V3.06421C11.9428 2.19521 11.9116 1.96263 11.7485 1.61527C11.478 1.03965 10.9462 0.631229 10.3337 0.528826C10.0955 0.48901 1.79897 0.491095 1.56565 0.531032ZM9.10338 2.76099C9.33926 2.87139 9.46717 3.12622 9.43364 3.41897C9.41151 3.61194 9.33766 3.73813 9.17998 3.85233L9.05243 3.94472L5.98382 3.95391C3.71699 3.96068 2.88413 3.95376 2.79623 3.92746C2.63189 3.87823 2.52213 3.79113 2.45752 3.65862C2.32807 3.39322 2.3552 3.15047 2.53757 2.94204C2.76119 2.68645 2.49979 2.70471 5.93433 2.70471C8.82875 2.70471 8.98928 2.70756 9.10338 2.76099ZM12.2989 5.1026C12.1922 5.14012 12.0382 5.22156 11.9569 5.28363C11.7048 5.47584 8.59983 8.70724 8.48038 8.90166C8.3442 9.12326 8.26871 9.37343 8.06368 10.2822C7.88637 11.0682 7.88485 11.1128 8.0323 11.2124C8.10797 11.2635 8.13477 11.2593 8.93342 11.0724C9.79513 10.8708 9.98839 10.8017 10.3109 10.5801C10.5159 10.4393 13.6389 7.25719 13.7849 7.04043C14.0369 6.66631 14.0709 6.13151 13.8688 5.72264C13.5893 5.1571 12.9088 4.88833 12.2989 5.1026ZM6.66308 5.33595C6.94583 5.47041 7.06532 5.77376 6.97198 6.1202C6.92879 6.28045 6.75374 6.45825 6.59609 6.50199C6.50864 6.52626 5.92659 6.53396 4.63399 6.52792L2.79623 6.51937L2.66327 6.44265C2.24613 6.20195 2.29946 5.52831 2.75161 5.32681C2.84082 5.28706 3.11971 5.28035 4.69991 5.27989C6.43068 5.2794 6.55141 5.28283 6.66308 5.33595Z" fill="#777777"/>
</svg>
